{"title":"Transformers 4: Age of Extinction [ENG - ITA 1080p CCast)","uid":11425363,"size":3348107068,"categoryP":"video","categoryS":"hd___movies","magnet":"?xt=urn:btih:6a0fe75430778e848c5a959097204d458d01fe63&amp;dn=Transformers+4%3A+Age+of+Extinction+%5BENG+-+ITA+1080p+CCast%29&amp;tr=udp%3A%2F%2Ftracker.openbittorrent.com%3A80&amp;tr=udp%3A%2F%2Fopen.demonii.com%3A1337&amp;tr=udp%3A%2F%2Ftracker.coppersurfer.tk%3A6969&amp;tr=udp%3A%2F%2Fexodus.desync.com%3A6969","seeders":134,"leechers":26,"uploader":"Crazypu","files":1,"time":1415655633,"description":"1080p Chromecast ready\n\nffmpeg version 2.2.git Copyright (c) 2000-2014 the FFmpeg developers\n built on Apr  2 2014 10:16:20 with gcc 4.7 (Ubuntu/Linaro 4.7.3-1ubuntu1)\n configuration: --prefix=/home/stefano/ffmpeg_build --extra-cflags=-I/home/stefano/ffmpeg_build/include --extra-ldflags=-L/home/stefano/ffmpeg_build/lib --bindir=/home/stefano/bin --extra-libs=-ldl --enable-gpl --enable-libfdk-aac --enable-libmp3lame --enable-libx264 --enable-nonfree\n libavutil      52. 71.100 / 52. 71.100\n libavcodec     55. 55.107 / 55. 55.107\n libavformat    55. 36.100 / 55. 36.100\n libavdevice    55. 11.100 / 55. 11.100\n libavfilter     4.  3.100 /  4.  3.100\n libswscale      2.  5.102 /  2.  5.102\n libswresample   0. 18.100 /  0. 18.100\n libpostproc    52.  3.100 / 52.  3.100\nInput #0, matroska,webm, from 'cast/Transformers.4.ITA-ENG.1080p.CCast.mkv':\n Metadata:\n   title           : Transformers 4 - L' era dell' estinzione\n   LANGUAGE        : Italiano\n   ENCODER         : Lavf55.36.100\n Duration: 02:45:07.41, start: 0.040000, bitrate: 2703 kb/s\n   Chapter #0.0: start 0.000000, end 411.578000\n   Chapter #0.1: start 411.578000, end 873.581000\n   Chapter #0.2: start 873.581000, end 1297.463000\n   Chapter #0.3: start 1297.463000, end 1813.395000\n   Chapter #0.4: start 1813.395000, end 2325.990000\n   Chapter #0.5: start 2325.990000, end 2768.057000\n   Chapter #0.6: start 2768.057000, end 3099.513000\n   Chapter #0.7: start 3099.513000, end 3549.337000\n   Chapter #0.8: start 3549.337000, end 4068.648000\n   Chapter #0.9: start 4068.648000, end 4514.552000\n   Chapter #0.10: start 4514.552000, end 5005.292000\n   Chapter #0.11: start 5005.292000, end 5354.724000\n   Chapter #0.12: start 5354.724000, end 5836.956000\n   Chapter #0.13: start 5836.956000, end 6275.436000\n   Chapter #0.14: start 6275.436000, end 6685.053000\n   Chapter #0.15: start 6685.053000, end 7067.936000\n   Chapter #0.16: start 7067.936000, end 7488.481000\n   Chapter #0.17: start 7488.481000, end 7955.865000\n   Chapter #0.18: start 7955.865000, end 8464.206000\n   Chapter #0.19: start 8464.206000, end 8928.670000\n   Chapter #0.20: start 8928.670000, end 9429.629000\n   Chapter #0.21: start 9429.629000, end 9907.328000\n   Stream #0:0: Video: h264 (High), yuv420p, 1920x800 [SAR 20:27 DAR 16:9], SAR 177:239 DAR 2124:1195, 23.98 fps, 23.98 tbr, 1k tbn, 47.95 tbc (default)\n   Stream #0:1: Audio: aac, 48000 Hz, 5.1, fltp (default)\n   Stream #0:2: Audio: aac, 48000 Hz, 5.1, fltp","torrent":{"xt":"urn:btih:6a0fe75430778e848c5a959097204d458d01fe63","amp;dn":"Transformers+4%3A+Age+of+Extinction+%5BENG+-+ITA+1080p+CCast%29","amp;tr":["udp%3A%2F%2Ftracker.openbittorrent.com%3A80","udp%3A%2F%2Fopen.demonii.com%3A1337","udp%3A%2F%2Ftracker.coppersurfer.tk%3A6969","udp%3A%2F%2Fexodus.desync.com%3A6969"],"infoHash":"6a0fe75430778e848c5a959097204d458d01fe63","infoHashBuffer":{"type":"Buffer","data":[106,15,231,84,48,119,142,132,140,90,149,144,151,32,77,69,141,1,254,99]},"announce":[],"urlList":[]}}